# xmcd
#
# Track frame offsets:
#	150
#	25970
#	41747
#	60937
#	85910
#	105080
#	125237
#	145930
#	165120
#	188847
#	206932
#	224327
#
# Disc length: 3157 seconds
#
# Revision: 0
# Processed by: cddbd v1.5.1PL0 Copyright (c) Steve Scherf et al.
# Submitted via: EasyCDDAExtractor 8.2.0.1
#
DISCID=a40c530c
DTITLE=Stephen Bruton - From The Five
DYEAR=2005
DGENRE=Blues
TTITLE0=Bigger Wheel
TTITLE1=This Old World 
TTITLE2=Walk By Faith
TTITLE3=Fading Man
TTITLE4=Every Once In A While
TTITLE5=The Clock
TTITLE6=Treasured Wounds
TTITLE7=Put Me Out Of Your Misery 
TTITLE8=The Halo Effect 
TTITLE9=That Moment When 
TTITLE10=Ordinary Man 
TTITLE11=In The Wind 
EXTD=
EXTT0=
EXTT1=
EXTT2=
EXTT3=
EXTT4=
EXTT5=
EXTT6=
EXTT7=
EXTT8=
EXTT9=
EXTT10=
EXTT11=
PLAYORDER=
